<mxfile host="app.diagrams.net" agent="Mozilla/5.0 (Windows NT 10.0; Win64; x64) AppleWebKit/537.36 (KHTML, like Gecko) Chrome/130.0.0.0 Safari/537.36" version="24.8.3">
  <diagram name="PÃ¡gina-1" id="Aw9s5zIO52FQepgHU360">
    <mxGraphModel grid="1" page="1" gridSize="10" guides="1" tooltips="1" connect="1" arrows="1" fold="1" pageScale="1" pageWidth="827" pageHeight="1169" math="0" shadow="0">
      <root>
        <mxCell id="0" />
        <mxCell id="1" parent="0" />
        <mxCell id="2Vm-KiljV-iA9XSEtbQ7-4" value="" style="edgeStyle=orthogonalEdgeStyle;rounded=0;orthogonalLoop=1;jettySize=auto;html=1;" edge="1" parent="1" target="2Vm-KiljV-iA9XSEtbQ7-3">
          <mxGeometry relative="1" as="geometry">
            <mxPoint x="95" y="100" as="sourcePoint" />
          </mxGeometry>
        </mxCell>
        <mxCell id="2Vm-KiljV-iA9XSEtbQ7-10" value="" style="edgeStyle=orthogonalEdgeStyle;rounded=0;orthogonalLoop=1;jettySize=auto;html=1;" edge="1" parent="1" source="2Vm-KiljV-iA9XSEtbQ7-3" target="2Vm-KiljV-iA9XSEtbQ7-9">
          <mxGeometry relative="1" as="geometry" />
        </mxCell>
        <mxCell id="2Vm-KiljV-iA9XSEtbQ7-54" style="edgeStyle=orthogonalEdgeStyle;rounded=0;orthogonalLoop=1;jettySize=auto;html=1;exitX=0;exitY=0.5;exitDx=0;exitDy=0;entryX=1;entryY=0.5;entryDx=0;entryDy=0;" edge="1" parent="1" source="2Vm-KiljV-iA9XSEtbQ7-3" target="2Vm-KiljV-iA9XSEtbQ7-52">
          <mxGeometry relative="1" as="geometry" />
        </mxCell>
        <mxCell id="2Vm-KiljV-iA9XSEtbQ7-3" value="Crear tarea&amp;nbsp;" style="html=1;whiteSpace=wrap;" vertex="1" parent="1">
          <mxGeometry x="40" y="240" width="110" height="50" as="geometry" />
        </mxCell>
        <mxCell id="2Vm-KiljV-iA9XSEtbQ7-7" value="" style="ellipse;fillColor=strokeColor;html=1;" vertex="1" parent="1">
          <mxGeometry x="80" y="70" width="30" height="30" as="geometry" />
        </mxCell>
        <mxCell id="2Vm-KiljV-iA9XSEtbQ7-8" value="Lider" style="text;html=1;align=center;verticalAlign=middle;resizable=0;points=[];autosize=1;strokeColor=none;fillColor=none;" vertex="1" parent="1">
          <mxGeometry x="70" y="30" width="50" height="30" as="geometry" />
        </mxCell>
        <mxCell id="2Vm-KiljV-iA9XSEtbQ7-12" value="" style="edgeStyle=orthogonalEdgeStyle;rounded=0;orthogonalLoop=1;jettySize=auto;html=1;" edge="1" parent="1" source="2Vm-KiljV-iA9XSEtbQ7-9" target="2Vm-KiljV-iA9XSEtbQ7-11">
          <mxGeometry relative="1" as="geometry" />
        </mxCell>
        <mxCell id="2Vm-KiljV-iA9XSEtbQ7-9" value="Asisgnar tarea a los miembros del equipo" style="html=1;whiteSpace=wrap;" vertex="1" parent="1">
          <mxGeometry x="240" y="240" width="110" height="50" as="geometry" />
        </mxCell>
        <mxCell id="2Vm-KiljV-iA9XSEtbQ7-31" value="" style="edgeStyle=orthogonalEdgeStyle;rounded=0;orthogonalLoop=1;jettySize=auto;html=1;" edge="1" parent="1" source="2Vm-KiljV-iA9XSEtbQ7-11" target="2Vm-KiljV-iA9XSEtbQ7-30">
          <mxGeometry relative="1" as="geometry" />
        </mxCell>
        <mxCell id="2Vm-KiljV-iA9XSEtbQ7-11" value="Mandar notificacion a los miembros del equipo" style="html=1;whiteSpace=wrap;" vertex="1" parent="1">
          <mxGeometry x="430" y="240" width="110" height="50" as="geometry" />
        </mxCell>
        <mxCell id="2Vm-KiljV-iA9XSEtbQ7-13" value="Software" style="text;html=1;align=center;verticalAlign=middle;resizable=0;points=[];autosize=1;strokeColor=none;fillColor=none;" vertex="1" parent="1">
          <mxGeometry x="450" y="30" width="70" height="30" as="geometry" />
        </mxCell>
        <mxCell id="2Vm-KiljV-iA9XSEtbQ7-34" value="" style="edgeStyle=orthogonalEdgeStyle;rounded=0;orthogonalLoop=1;jettySize=auto;html=1;" edge="1" parent="1" source="2Vm-KiljV-iA9XSEtbQ7-30">
          <mxGeometry relative="1" as="geometry">
            <mxPoint x="485" y="440" as="targetPoint" />
          </mxGeometry>
        </mxCell>
        <mxCell id="2Vm-KiljV-iA9XSEtbQ7-30" value="Integrante de equipo" style="shape=umlActor;verticalLabelPosition=bottom;verticalAlign=top;html=1;" vertex="1" parent="1">
          <mxGeometry x="470" y="330" width="30" height="60" as="geometry" />
        </mxCell>
        <mxCell id="2Vm-KiljV-iA9XSEtbQ7-38" style="edgeStyle=orthogonalEdgeStyle;rounded=0;orthogonalLoop=1;jettySize=auto;html=1;exitX=0.5;exitY=1;exitDx=0;exitDy=0;" edge="1" parent="1" source="2Vm-KiljV-iA9XSEtbQ7-36">
          <mxGeometry relative="1" as="geometry">
            <mxPoint x="485" y="590" as="targetPoint" />
          </mxGeometry>
        </mxCell>
        <mxCell id="2Vm-KiljV-iA9XSEtbQ7-40" style="edgeStyle=orthogonalEdgeStyle;rounded=0;orthogonalLoop=1;jettySize=auto;html=1;exitX=0;exitY=0.5;exitDx=0;exitDy=0;" edge="1" parent="1" source="2Vm-KiljV-iA9XSEtbQ7-36">
          <mxGeometry relative="1" as="geometry">
            <mxPoint x="380" y="495" as="targetPoint" />
          </mxGeometry>
        </mxCell>
        <mxCell id="2Vm-KiljV-iA9XSEtbQ7-36" value="Desea Realizar tarea" style="rhombus;" vertex="1" parent="1">
          <mxGeometry x="420" y="440" width="132.5" height="110" as="geometry" />
        </mxCell>
        <mxCell id="2Vm-KiljV-iA9XSEtbQ7-39" value="SI" style="text;html=1;align=center;verticalAlign=middle;resizable=0;points=[];autosize=1;strokeColor=none;fillColor=none;" vertex="1" parent="1">
          <mxGeometry x="470" y="585" width="30" height="30" as="geometry" />
        </mxCell>
        <mxCell id="2Vm-KiljV-iA9XSEtbQ7-41" value="NO" style="text;html=1;align=center;verticalAlign=middle;resizable=0;points=[];autosize=1;strokeColor=none;fillColor=none;" vertex="1" parent="1">
          <mxGeometry x="350" y="480" width="40" height="30" as="geometry" />
        </mxCell>
        <mxCell id="2Vm-KiljV-iA9XSEtbQ7-46" value="" style="edgeStyle=orthogonalEdgeStyle;rounded=0;orthogonalLoop=1;jettySize=auto;html=1;" edge="1" parent="1" source="2Vm-KiljV-iA9XSEtbQ7-42" target="2Vm-KiljV-iA9XSEtbQ7-45">
          <mxGeometry relative="1" as="geometry" />
        </mxCell>
        <mxCell id="2Vm-KiljV-iA9XSEtbQ7-42" value="Realizar tarea" style="html=1;whiteSpace=wrap;" vertex="1" parent="1">
          <mxGeometry x="431.25" y="610" width="110" height="50" as="geometry" />
        </mxCell>
        <mxCell id="2Vm-KiljV-iA9XSEtbQ7-43" value="Ignorar tarea" style="html=1;whiteSpace=wrap;" vertex="1" parent="1">
          <mxGeometry x="240" y="470" width="110" height="50" as="geometry" />
        </mxCell>
        <mxCell id="2Vm-KiljV-iA9XSEtbQ7-47" style="edgeStyle=orthogonalEdgeStyle;rounded=0;orthogonalLoop=1;jettySize=auto;html=1;" edge="1" parent="1" source="2Vm-KiljV-iA9XSEtbQ7-45">
          <mxGeometry relative="1" as="geometry">
            <mxPoint x="680" y="80" as="targetPoint" />
          </mxGeometry>
        </mxCell>
        <mxCell id="2Vm-KiljV-iA9XSEtbQ7-45" value="Mandar progreso al lider" style="html=1;whiteSpace=wrap;" vertex="1" parent="1">
          <mxGeometry x="431.25" y="740" width="110" height="50" as="geometry" />
        </mxCell>
        <mxCell id="2Vm-KiljV-iA9XSEtbQ7-48" value="" style="endArrow=open;startArrow=none;endFill=0;startFill=0;endSize=8;html=1;verticalAlign=bottom;labelBackgroundColor=none;strokeWidth=1;rounded=0;entryX=1;entryY=0.5;entryDx=0;entryDy=0;" edge="1" parent="1" target="2Vm-KiljV-iA9XSEtbQ7-7">
          <mxGeometry width="160" relative="1" as="geometry">
            <mxPoint x="680" y="84.5" as="sourcePoint" />
            <mxPoint x="510" y="84.5" as="targetPoint" />
          </mxGeometry>
        </mxCell>
        <mxCell id="2Vm-KiljV-iA9XSEtbQ7-52" value="Eliminar tarea" style="html=1;whiteSpace=wrap;" vertex="1" parent="1">
          <mxGeometry x="-90" y="240" width="110" height="50" as="geometry" />
        </mxCell>
      </root>
    </mxGraphModel>
  </diagram>
</mxfile>
